<?xml version="1.0" ?><svg height="512" viewBox="0 0 512 512" width="512" xmlns="http://www.w3.org/2000/svg"><defs><style>
      .cls-1 {
        fill: #fbae17;
      }

      .cls-2 {
        fill: none;
        stroke: #000;
        stroke-linecap: round;
        stroke-linejoin: round;
        stroke-width: 3px;
      }

      .cls-3 {
        fill: #fff;
      }
    </style></defs><title/><g data-name="Set v 2" id="Set_v_2"><circle class="cls-1" cx="256" cy="257.43" r="190.73"/><circle class="cls-2" cx="256" cy="257.43" r="190.73"/><g><g><path class="cls-3" d="M379,153.15a31.39,31.39,0,0,0-31.39-31.4H153.73a31.4,31.4,0,0,0-31.4,31.4V347a31.4,31.4,0,0,0,31.4,31.4h167.8l-11.34-29.5,68.81,61ZM335.68,288.88c-2.9,13.4-39.62,23.71-44,20-3.71-4.53-8.87-10.51-8.87-10.51,13.21-3.93,23.12-10.74,25-16.73-17.54,12.17-44.37,15.9-55.71,15.9s-46.21-6-56.33-16.71c6.2,10.1,16.3,16.29,23.32,17.32-3.3,4.54-6,8.14-8.25,11.5-17.54.48-35.49-9.84-44.37-20.77-.61-22.91,8.47-62.74,19.81-84.4,11.56-12.79,40-14.64,42.1-14.64s-22.26,6.89-35.78,19.21c18.5-9.44,44.31-12.82,57-12.82s40.08,1.76,58,13.3c-17-13.61-27.33-16.6-35.89-19.08,8.56-1.54,32.69,3.71,42.81,13.52C320.71,210.67,338.36,254.63,335.68,288.88Z"/><path class="cls-1" d="M314.53,204c-10.12-9.81-34.25-15.06-42.81-13.52,8.56,2.48,18.88,5.47,35.89,19.08-18-11.54-45.38-13.3-58-13.3s-38.46,3.38-57,12.82c13.52-12.32,37.84-19.21,35.78-19.21s-30.54,1.85-42.1,14.64C175,226.14,165.87,266,166.48,288.88c8.88,10.93,26.83,21.25,44.37,20.77,2.27-3.36,5-7,8.25-11.5-7-1-17.12-7.22-23.32-17.32,10.12,10.71,45,16.71,56.33,16.71s38.17-3.73,55.71-15.9c-1.85,6-11.76,12.8-25,16.73,0,0,5.16,6,8.87,10.51,4.34,3.71,41.06-6.6,44-20C338.36,254.63,320.71,210.67,314.53,204Zm-90.06,70.66a15.48,15.48,0,1,1,15.47-15.47A15.49,15.49,0,0,1,224.47,274.63Zm53.17,0a15.48,15.48,0,1,1,15.48-15.47A15.47,15.47,0,0,1,277.64,274.63Z"/><path class="cls-3" d="M239.94,259.16a15.48,15.48,0,1,1-15.47-15.48A15.47,15.47,0,0,1,239.94,259.16Z"/><path class="cls-3" d="M293.12,259.16a15.48,15.48,0,1,1-15.48-15.48A15.48,15.48,0,0,1,293.12,259.16Z"/></g><g><path class="cls-2" d="M379,378V152.71a31.4,31.4,0,0,0-31.4-31.4H153.73a31.4,31.4,0,0,0-31.4,31.4V346.58a31.4,31.4,0,0,0,31.4,31.4H321.54l-11.35-29.5,68.81,61Z"/><circle class="cls-2" cx="224.46" cy="258.73" r="15.47"/><circle class="cls-2" cx="277.64" cy="258.73" r="15.47"/><path class="cls-2" d="M166.49,288.44c-.62-22.91,8.46-62.73,19.8-84.39,11.56-12.79,40-14.65,42.09-14.65s-22.25,6.9-35.77,19.21c18.49-9.43,44.31-12.81,57-12.81s40.09,1.75,58,13.3c-17-13.61-27.34-16.6-35.9-19.08,8.56-1.55,32.7,3.71,42.81,13.51,6.19,6.71,23.83,50.66,21.15,84.91-2.89,13.41-39.61,23.72-43.95,20-3.71-4.54-8.87-10.52-8.87-10.52,13.21-3.92,23.11-10.73,25-16.72-17.54,12.18-44.36,15.89-55.71,15.89s-46.22-6-56.33-16.71c6.19,10.11,16.3,16.3,23.32,17.33-3.3,4.54-6,8.13-8.25,11.49C193.31,309.69,175.36,299.37,166.49,288.44Z"/></g></g><g><path class="cls-2" d="M427.79,291.82q-1.37,6.93-3.27,13.67"/><path class="cls-2" d="M427.79,223.78a177.08,177.08,0,0,1,2,55.69"/><path class="cls-2" d="M420.85,198.63q2.43,6.76,4.31,13.79"/><path class="cls-2" d="M299.22,88q6.66,1.69,13.1,3.9"/><path class="cls-2" d="M241.11,83.15q7.29-.6,14.72-.61A177.07,177.07,0,0,1,286,85.12"/><path class="cls-2" d="M211,88.34q6.54-1.73,13.25-3"/><path class="cls-2" d="M84.43,221.11c.79-3.7,1.69-7.37,2.71-11"/><path class="cls-2" d="M83.52,289.92a176.89,176.89,0,0,1-.82-59.42"/><path class="cls-2" d="M89.55,313.3q-2-6-3.58-12.2"/><path class="cls-2" d="M207.52,426.3q-5.58-1.59-11-3.55"/><path class="cls-2" d="M291.37,429.44a176.72,176.72,0,0,1-73.61-.54"/><path class="cls-2" d="M313.21,423.44q-5.61,1.95-11.4,3.51"/></g></g></svg>